<svg version="1.0" xmlns="http://www.w3.org/2000/svg"
 width="297.000000pt" height="248.000000pt" viewBox="0 0 297.000000 248.000000"
 preserveAspectRatio="xMidYMid meet">

<g transform="translate(0.000000,248.000000) scale(0.100000,-0.100000)"
fill="#24303a" stroke="none">
<path d="M500 2470 c-142 -9 -179 -22 -278 -95 -82 -60 -146 -143 -179 -235
l-28 -75 0 -820 1 -820 27 -79 c15 -43 39 -98 53 -121 37 -63 120 -142 194
-183 l65 -37 1116 -3 1116 -2 82 41 c145 72 249 203 286 360 29 126 17 1510
-15 1699 -13 71 -68 184 -119 242 -27 30 -69 59 -127 89 l-87 44 -991 1 c-545
1 -1047 -2 -1116 -6z m1658 -273 c38 -35 55 -75 47 -113 -8 -43 -50 -93 -92
-111 -30 -12 -38 -12 -69 3 -88 42 -105 141 -36 207 53 51 105 56 150 14z
m423 -16 c33 -33 39 -45 39 -82 0 -76 -69 -147 -130 -134 -16 3 -45 24 -64 46
-30 33 -36 46 -36 85 0 40 5 51 39 85 31 31 46 39 76 39 30 0 45 -8 76 -39z
m-2004 -1 c50 -30 66 -63 60 -117 -9 -86 -90 -128 -167 -88 -78 40 -79 160 -1
208 35 22 69 21 108 -3z m367 10 c61 -23 86 -130 43 -181 -50 -60 -106 -61
-157 -3 -45 52 -40 112 15 167 29 28 57 33 99 17z m1810 -479 c3 -4 7 -287 8
-627 l2 -619 -33 -71 c-38 -83 -84 -131 -161 -171 l-55 -28 -980 -8 c-539 -4
-1001 -6 -1027 -4 -67 6 -169 58 -217 113 -79 90 -79 91 -81 610 -1 252 -1
539 -1 637 l1 177 1269 0 c707 0 1272 -4 1275 -9z"/>
<path d="M765 1490 c-4 -11 -5 -50 -4 -88 l3 -67 -35 -17 c-19 -9 -39 -17 -46
-18 -6 0 -39 25 -72 56 l-61 56 -69 -59 c-38 -32 -70 -65 -70 -73 -1 -8 22
-38 51 -67 l51 -52 -24 -55 c-22 -51 -27 -56 -56 -56 -17 0 -43 -4 -57 -10
-26 -9 -26 -11 -26 -118 0 -71 4 -112 12 -120 7 -7 33 -12 59 -12 46 0 48 -1
69 -45 25 -51 26 -49 -44 -123 l-40 -42 64 -65 c35 -36 72 -65 81 -65 9 0 37
23 63 50 l47 50 49 -17 c43 -15 49 -21 54 -52 3 -20 6 -57 6 -83 0 -26 4 -49
8 -52 17 -10 204 -8 214 2 6 6 13 47 16 91 l4 79 41 16 40 16 53 -50 c29 -28
58 -50 64 -50 19 0 120 102 126 127 5 19 -3 31 -40 64 -25 22 -46 46 -46 51 0
6 10 33 23 59 l22 48 68 1 68 0 -3 123 -3 122 -70 3 -70 3 -17 57 -17 57 57
52 57 51 -60 62 c-91 93 -90 93 -150 28 l-52 -56 -51 17 -52 16 0 88 0 87
-114 0 c-106 0 -115 -2 -121 -20z m213 -377 c69 -32 112 -110 112 -200 -1
-128 -83 -213 -207 -213 -156 1 -268 170 -203 305 56 115 183 161 298 108z"/>
<path d="M2118 1413 l-158 -4 0 -85 0 -86 291 3 291 4 29 33 c36 40 36 54 0
94 -27 30 -35 33 -112 39 -46 4 -106 7 -134 6 -27 -1 -121 -3 -207 -4z"/>
<path d="M2083 1023 l-111 -4 -4 -77 c-2 -42 -2 -79 0 -82 8 -11 537 -11 573
-1 29 9 40 19 52 49 13 32 13 41 1 64 -25 48 -46 53 -229 54 -93 0 -220 -1
-282 -3z"/>
<path d="M1967 623 c-4 -3 -7 -42 -7 -85 l0 -78 188 -2 c103 -2 234 -2 292 0
102 3 106 4 133 33 35 38 35 73 -2 110 l-29 29 -285 0 c-156 0 -287 -3 -290
-7z"/>
</g>
</svg>
